<svg preserveAspectRatio="none" width="100%" height="100%" overflow="visible" style="display: block;" viewBox="0 0 70 70" fill="none" xmlns="http://www.w3.org/2000/svg">
<g id="SPANHOLO [Vectorized]" clip-path="url(#clip0_0_4)">
<path id="Vector" d="M32.7471 0H37.2438C37.2541 0.0071992 37.264 0.0149028 37.2746 0.0215977C37.4328 0.121517 40.6209 0.404764 41.1592 0.494612C42.4141 0.704013 43.6496 1.04096 44.8708 1.39319C56.7986 4.9082 65.985 14.4588 69.0334 26.5143C69.4189 28.0125 69.6459 29.7551 69.8448 31.299C69.8872 31.6263 69.8708 32.5773 70 32.7455V37.3669C69.6596 39.6743 69.6015 41.0335 69.0156 43.4185C67.0441 51.3343 62.3744 58.3151 55.8106 63.1592C51.6871 66.1877 46.9583 68.2904 41.9475 69.3232C40.6663 69.5912 38.8054 69.7354 37.6958 70H32.1462C31.3566 69.7867 29.9003 69.6507 29.0179 69.4955C15.6746 67.1685 4.8639 57.3663 1.24539 44.314C0.757497 42.575 0.411914 40.7991 0.212062 39.004C0.17017 38.6552 0.156099 37.4311 0 37.2477V32.7614C0.1676 32.55 0.0944111 32.2986 0.113108 32.042C0.241574 30.2791 0.520957 28.3939 0.946531 26.683C3.94144 14.5008 13.2079 4.84172 25.2555 1.34422C26.514 0.976411 27.794 0.686239 29.088 0.475321C29.584 0.395 32.5739 0.114378 32.7178 0.0210837C32.7279 0.0145396 32.7374 0.00702789 32.7471 0ZM11.84 24.0135C7.89414 31.3199 7.81669 40.1047 11.6331 47.4795C15.9287 55.7806 24.4805 61.0078 33.8271 61.0455C43.1737 61.0831 51.7673 55.9249 56.1296 47.6587C60.0302 40.2674 59.9967 31.4197 56.0403 24.0582C52.8766 18.1716 47.4962 13.7894 41.091 11.8824C37.0436 10.6775 32.7577 10.5131 28.6299 11.4043C21.4598 12.9525 15.3256 17.5593 11.84 24.0135Z" fill="transparent"></path>
<path id="Vector_2" d="M2.27632 42.2464C-0.349353 29.2394 5.24416 15.9495 16.3807 8.73489C27.5174 1.52026 41.9327 1.84785 52.7301 9.56095C63.5275 17.274 68.5118 30.8043 65.2976 43.6785C62.2988 55.6915 52.6989 64.9344 40.5809 67.4759C39.9271 67.613 39.2693 67.7298 38.6083 67.8262C37.7314 67.9539 36.8497 68.0456 35.9652 68.1009C33.4991 68.2551 31.0234 68.1259 28.5867 67.7159C27.409 67.5177 26.2432 67.2544 25.0947 66.9272C22.6997 66.2448 20.3916 65.2878 18.2164 64.0752C9.96864 59.4776 4.14478 51.5023 2.27632 42.2464ZM11.84 24.0135C7.89414 31.3199 7.81669 40.1047 11.6331 47.4795C15.9287 55.7806 24.4804 61.0078 33.8271 61.0455C43.1737 61.0831 51.7673 55.9249 56.1296 47.6587C60.0302 40.2674 59.9967 31.4197 56.0403 24.0582C52.8766 18.1716 47.4962 13.7894 41.091 11.8824C37.0436 10.6775 32.7577 10.5131 28.6299 11.4043C21.4598 12.9525 15.3256 17.5593 11.84 24.0135Z" fill="var(--fill-0, #76DCF5)"></path>
<path id="Vector_3" d="M40.6771 66.9832C41.8462 66.7447 43.2068 66.0954 44.2846 65.6044C44.9867 65.2844 46.2206 65.0203 46.8943 64.6831C48.0655 64.097 49.2728 63.3151 50.4311 62.6518C51.23 62.1944 52.3663 61.6742 53.087 61.2187C53.9018 60.7037 54.9963 59.4783 55.7928 58.8288C56.0983 58.5797 57.0115 58.2046 57.1768 58.0498C59.1766 56.1764 60.848 53.6436 62.284 51.3131C62.5301 51.0022 62.6521 50.3747 62.8405 50.0797C63.3232 49.3244 63.507 48.6393 63.8151 47.8566C64.3245 46.5622 64.869 45.3633 65.1201 43.9739C65.1412 43.8573 65.1597 43.7823 65.1958 43.6691L65.2976 43.6785C62.2988 55.6915 52.6989 64.9344 40.5809 67.4759C40.6819 67.262 40.7827 67.2807 40.8444 67.1236L40.6771 66.9832Z" fill="var(--fill-0, #3AABD5)"></path>
<path id="Vector_4" d="M23.6828 66.2094C23.9622 66.2126 24.1566 66.3057 24.4176 66.3365C26.5271 66.5851 27.9867 67.5298 30.2099 67.3366C32.3558 67.1501 34.7288 67.614 36.9171 67.3889C37.3372 67.3533 38.6835 67.2374 38.9613 67.5451C39.8388 67.5401 39.8725 67.0639 40.6771 66.9832L40.8444 67.1236C40.7827 67.2807 40.6819 67.262 40.5809 67.4759C39.9271 67.613 39.2693 67.7298 38.6083 67.8262C37.7314 67.9539 36.8497 68.0456 35.9652 68.1009C33.4991 68.2551 31.0234 68.1259 28.5867 67.7159C27.409 67.5177 26.2432 67.2544 25.0947 66.9272C24.9266 66.5078 24.0931 66.3716 23.6828 66.2094Z" fill="var(--fill-0, #53DCF6)"></path>
<path id="Vector_5" d="M28.5867 67.7159C29.111 67.6069 29.3674 67.6739 29.881 67.6998C31.9102 67.802 33.7975 67.7976 35.8307 67.9926L35.9652 68.1009C33.4991 68.2551 31.0234 68.1259 28.5867 67.7159Z" fill="var(--fill-0, #3AABD5)"></path>
<path id="Vector_6" d="M38.9613 67.5451C39.8388 67.5401 39.8725 67.0639 40.6771 66.9832L40.8444 67.1236C40.7827 67.2807 40.6819 67.262 40.5809 67.4759C39.9271 67.613 39.2693 67.7298 38.6083 67.8262C38.1166 67.9224 37.5848 67.7585 37.0713 67.7093C37.6387 67.5072 38.4925 67.6513 38.9613 67.5451Z" fill="var(--fill-0, #3AABD5)"></path>
<path id="Vector_7" d="M2.27633 42.2464L2.35828 42.1718C2.67057 42.763 2.74902 43.7098 2.93201 44.3671C3.28576 45.6081 3.69572 46.8324 4.16063 48.0362C4.36486 48.5512 4.66735 49.0664 4.9189 49.5475C5.7353 51.1089 6.40865 52.8441 7.76829 54.0164C8.5182 54.6628 9.0516 55.7888 9.41569 56.6761C9.50264 56.8913 10.749 58.0524 10.9527 58.2492C12.4896 59.7335 14.2555 61.5895 16.2021 62.4865C16.2092 62.4033 16.2081 62.385 16.2005 62.3016C16.3721 62.3379 17.5362 63.1982 17.741 63.3875C17.9296 63.5619 18.4217 63.3479 18.5751 63.4278C19.1771 63.7413 19.9465 64.3001 20.4978 64.682C20.5414 64.8028 20.5489 64.802 20.5324 64.935L20.6761 64.8937C20.9009 65.0288 21.1658 65.0707 21.4048 65.1909C22.1508 65.5661 22.8551 66.0289 23.6828 66.2094C24.0931 66.3716 24.9266 66.5078 25.0947 66.9272C22.6997 66.2448 20.3916 65.2878 18.2164 64.0752C9.96865 59.4776 4.14479 51.5023 2.27633 42.2464Z" fill="var(--fill-0, #3AABD5)"></path>
<path id="Vector_8" d="M13.6412 57.6229C13.2434 57.1539 12.8924 56.6465 12.4969 56.1747C11.3107 54.7596 9.49566 52.7609 8.63324 51.1764C8.22035 50.4176 7.8845 49.6117 7.53348 48.8227C6.49826 46.4958 5.63138 44.1866 5.13084 41.6808C4.82679 40.1588 4.78777 38.5912 4.73061 37.0438C4.59296 33.3169 4.54479 29.5941 5.61885 25.9771C6.05648 24.5033 6.69354 23.2733 7.41125 21.928C7.86769 21.0725 8.27572 20.1809 8.77625 19.3508C9.62787 17.9387 10.6637 16.6288 11.6627 15.3197C12.1976 14.6187 12.7112 13.8727 13.3077 13.2242C14.0309 12.4378 14.8959 11.6925 15.7544 11.0569C16.4546 10.5386 17.2616 10.1801 18.0155 9.74819C18.6984 9.35697 19.3182 8.86054 20.0059 8.47697C20.7099 8.08425 21.4905 7.84465 22.2146 7.49363C22.7639 7.22737 23.2561 6.84654 23.7956 6.55907C24.3402 6.26889 24.9938 6.10298 25.587 5.9296C29.8707 4.67747 37.6654 4.21521 41.9662 5.49779C43.7504 6.02989 44.8151 6.77427 46.406 7.55775C47.5454 8.11891 48.7093 8.53535 49.779 9.23706C51.8744 10.6116 56.9401 15.1063 58.1158 17.2849C58.5963 17.4822 59.6682 18.4285 59.9181 18.8836L58.9678 18.1271C59.0328 18.4085 59.3133 18.4761 59.4001 18.8007C59.5541 19.3763 59.5824 20.3196 59.8405 20.8538C60.7573 22.7521 61.975 24.7963 62.6407 26.7869C62.8841 27.5146 62.6717 29.1858 62.8111 29.9834C62.8286 30.616 62.9548 31.9043 62.8002 32.442C63.0749 34.2546 62.8119 38.1392 62.6078 40.0252C62.5183 40.8524 62.128 42.4132 61.8497 43.2289C61.6139 43.9199 60.2734 47.0408 60.2561 47.623C60.1722 49.0021 58.4415 51.2721 57.6056 52.383C57.0782 53.0642 56.3493 53.6964 55.8225 54.3666C54.94 55.4894 53.8695 56.8719 52.7487 57.7715C51.5526 58.7314 50.6649 59.774 49.5609 60.7852C48.3412 61.9024 46.6478 62.8352 45.2475 63.7078C45.1949 63.7386 44.9485 63.7392 44.8781 63.7399C44.6052 63.9426 44.4216 64.0729 44.1284 64.2435C44.4273 64.2726 44.7938 64.2648 45.099 64.2665L45.1203 64.3021C44.4423 64.6885 39.4277 66.3184 38.7861 66.0773L38.8049 66.0142C39.3881 65.8241 39.9611 65.6688 40.521 65.4904L40.5405 65.3959C40.3077 65.2991 40.3431 65.3558 40.1051 65.425C38.7838 65.8091 37.3694 65.8024 36.049 66.2015C35.7856 66.2811 35.1061 66.1847 34.8012 66.2564C34.358 66.4405 33.8909 66.6393 33.3842 66.6094C29.8481 66.4012 26.1485 65.5126 22.8225 64.2928C21.5763 63.8358 20.0949 62.8381 18.8525 62.2736C18.3694 62.0541 17.6239 61.1412 17.0877 60.8731C16.367 60.387 15.5815 59.9612 14.9466 59.3691C14.3514 58.8405 14.1108 58.1999 13.6638 57.7682L13.6412 57.6229ZM11.84 24.0135C7.89414 31.3199 7.81669 40.1047 11.6331 47.4796C15.9287 55.7806 24.4805 61.0078 33.8271 61.0455C43.1737 61.0831 51.7673 55.9249 56.1296 47.6587C60.0302 40.2674 59.9967 31.4197 56.0403 24.0582C52.8766 18.1716 47.4962 13.7894 41.091 11.8824C37.0436 10.6775 32.7577 10.5131 28.6299 11.4043C21.4598 12.9525 15.3256 17.5593 11.84 24.0135Z" fill="var(--fill-0, #D2F8FB)"></path>
<path id="Vector_9" d="M13.6412 57.6229C13.724 57.6592 14.1116 58.0447 14.2331 58.1392C15.0001 58.7494 15.7707 59.3601 16.5444 59.9607C16.9138 60.2474 18.1993 60.5645 18.3174 60.9172L17.9633 60.8895L17.9309 60.9749C18.4872 61.5176 20.6814 63.1306 21.408 63.3658C23.5953 64.0739 26.3342 64.8218 28.627 65.1056C29.1068 65.165 30.2003 65.0822 30.8049 65.138C32.0807 65.2333 33.3558 65.686 34.6378 65.7156C38.2862 65.7999 41.9509 64.496 45.3629 63.3309C46.6309 62.6935 48.4241 61.6781 49.4621 60.687C50.7032 59.502 52.0066 58.1958 53.3051 57.0601C54.3222 56.1707 55.1465 54.8537 56.0518 53.9135C57.9664 51.9249 59.2039 50.1673 60.2561 47.623C60.1722 49.0021 58.4415 51.2721 57.6056 52.383C57.0782 53.0642 56.3493 53.6964 55.8225 54.3666C54.94 55.4894 53.8695 56.8719 52.7487 57.7715C51.5526 58.7314 50.6649 59.774 49.5609 60.7852C48.3412 61.9024 46.6478 62.8352 45.2476 63.7078C45.1949 63.7386 44.9485 63.7392 44.8781 63.7399C44.6052 63.9426 44.4216 64.0729 44.1284 64.2435C44.4273 64.2726 44.7938 64.2648 45.099 64.2665L45.1203 64.3021C44.4423 64.6885 39.4277 66.3184 38.7861 66.0773L38.8049 66.0142C39.3881 65.8241 39.9611 65.6688 40.521 65.4904L40.5405 65.3959C40.3077 65.2991 40.3431 65.3558 40.1051 65.425C38.7838 65.8091 37.3694 65.8024 36.049 66.2015C35.7856 66.2811 35.1061 66.1847 34.8012 66.2564C34.358 66.4405 33.8909 66.6393 33.3842 66.6094C29.8481 66.4012 26.1485 65.5126 22.8225 64.2928C21.5763 63.8358 20.0949 62.8381 18.8525 62.2736C18.3694 62.0541 17.6239 61.1412 17.0877 60.8731C16.367 60.387 15.5815 59.9612 14.9466 59.3691C14.3514 58.8405 14.1108 58.1999 13.6638 57.7682L13.6412 57.6229Z" fill="var(--fill-0, #90EEFB)"></path>
<path id="Vector_10" d="M58.1158 17.2849C58.5963 17.4822 59.6682 18.4285 59.9181 18.8836L58.9678 18.1271C59.0328 18.4085 59.3133 18.4761 59.4001 18.8007C59.5541 19.3763 59.5824 20.3196 59.8405 20.8538C60.7573 22.7521 61.975 24.7963 62.6407 26.7869C62.8841 27.5146 62.6717 29.1858 62.8111 29.9834C62.8286 30.616 62.9548 31.9043 62.8002 32.442C62.7039 32.0666 62.7318 31.5215 62.6899 31.1389C62.57 30.0454 62.5689 27.3595 62.2646 26.4408C61.6089 24.4612 60.4898 22.3783 59.5109 20.547C59.2946 20.1421 59.0983 19.4928 58.8867 19.0299C58.6353 18.4797 58.2576 17.8445 58.1158 17.2849Z" fill="var(--fill-0, #90EEFB)"></path>
<path id="Vector_11" d="M60.262 27.7423C61.3549 30.8712 61.6533 35.939 61.2982 39.254C60.8561 43.3811 59.2391 48.1018 56.8918 51.5303C56.4877 52.1204 55.6835 52.9642 55.2066 53.5732C54.2404 54.8067 52.8053 56.2905 51.6081 57.323C50.6867 57.9495 49.5472 59.1612 48.5994 59.6548C46.9252 60.5268 44.4216 61.8235 42.6787 62.3686C38.7961 63.5826 34.4094 63.7826 30.4136 63.1244C29.1422 62.915 27.8241 62.4838 26.5944 62.1108C25.947 61.9069 24.8589 61.3582 24.2534 61.207C23.7308 61.0765 23.1552 61.5509 22.1828 61.4477C21.1442 61.3374 20.3218 60.8179 19.4683 60.732C19.4784 60.7869 19.4842 60.8265 19.49 60.882C17.42 59.8183 14.6705 58.0003 13.3813 56.0125C12.0492 53.9586 10.184 51.7417 9.08189 49.5924C8.02109 47.5237 7.30701 44.7057 6.5408 42.4887C5.32858 38.0953 5.9211 33.0967 6.53342 28.6555C6.86328 27.3524 7.57716 26.8108 8.00427 25.4788C8.36569 24.3517 8.26192 22.4878 8.89069 21.6513C9.81033 20.428 10.7543 18.4756 11.7718 17.4359C13.6987 15.5072 16.2573 12.6705 18.5829 11.3366C22.2927 9.20876 30.3488 6.29001 34.5721 7.69323C35.4096 7.84793 36.7698 7.7592 37.6804 7.77923C39.0682 7.81737 40.4516 7.95259 41.8205 8.18399C45.8333 8.8496 48.9431 11.3307 52.2145 13.8358C55.1746 16.1025 58.4305 20.4091 59.785 23.9405C59.8758 24.1773 60.1939 27.2435 60.262 27.7423ZM11.84 24.0135C7.89414 31.3199 7.81669 40.1047 11.6331 47.4795C15.9287 55.7806 24.4805 61.0078 33.8271 61.0455C43.1737 61.0831 51.7673 55.9249 56.1296 47.6587C60.0302 40.2674 59.9967 31.4197 56.0403 24.0582C52.8766 18.1716 47.4962 13.7894 41.091 11.8824C37.0436 10.6775 32.7577 10.5131 28.6299 11.4043C21.4598 12.9525 15.3256 17.5593 11.84 24.0135Z" fill="var(--fill-0, #53DCF6)"></path>
<path id="Vector_12" d="M34.5721 7.69323C35.4096 7.84793 36.7698 7.7592 37.6804 7.77923C39.0682 7.81737 40.4516 7.95259 41.8205 8.18399C45.8333 8.8496 48.9431 11.3307 52.2145 13.8358C55.1746 16.1025 58.4305 20.4091 59.785 23.9405C59.8758 24.1773 60.1938 27.2435 60.262 27.7423C60.2152 27.6999 60.2131 27.7103 60.1949 27.6618C59.9878 27.1102 59.5144 26.8984 59.1028 26.341C58.6337 25.7055 58.4532 25.3871 58.083 24.7038C57.5854 23.7852 57.1735 22.32 56.6426 21.5071C55.6603 20.1128 54.5528 18.4782 53.2653 17.3478C51.8322 16.0897 50.3509 14.7455 48.9072 13.5015C48.5965 13.2338 47.7066 13.0799 47.3471 12.8682C45.8942 11.9481 44.5047 11.4285 42.9074 10.8545C41.0692 10.194 39.2919 10.0209 37.4434 9.49382C36.9461 9.35197 35.8615 8.53412 35.3676 8.28276C35.1928 8.19383 34.8551 7.85258 34.5721 7.69323Z" fill="var(--fill-0, #90EEFB)"></path>
<path id="Vector_13" d="M28.6299 11.4043C32.7577 10.5131 37.0436 10.6775 41.091 11.8824C47.4962 13.7894 52.8766 18.1716 56.0403 24.0582C59.9967 31.4197 60.0302 40.2674 56.1296 47.6586C51.7673 55.9249 43.1737 61.0831 33.8271 61.0455C24.4805 61.0078 15.9287 55.7806 11.6331 47.4795C7.81669 40.1047 7.89414 31.3199 11.84 24.0135C15.3256 17.5593 21.4598 12.9525 28.6299 11.4043ZM27.8305 28.7688C27.9563 28.9457 28.0713 29.1415 28.2463 29.261C28.211 28.8075 28.2622 27.6801 27.9258 27.402L27.786 27.4211C27.2353 27.8335 27.5073 28.3407 27.8305 28.7688ZM26.5316 28.1524C26.397 27.9312 26.2981 27.7047 26.0643 27.6108C25.561 27.6538 25.5343 28.334 25.6433 28.7042C26.1103 28.6037 26.3167 28.5988 26.5316 28.1524ZM27.4961 30.6435C27.711 30.4869 27.781 30.4983 27.8275 30.2911L27.6698 30.1703C27.1679 30.0955 26.9927 30.0354 26.5106 30.2097C26.6033 30.4525 26.6292 30.5687 26.8275 30.737C27.0589 30.8275 27.1686 30.7861 27.4019 30.6861C27.4336 30.6724 27.465 30.6582 27.4961 30.6435Z" fill="var(--fill-0, #F7C30B)"></path>
<path id="Vector_14" d="M11.6331 47.4796C11.7942 47.5926 11.9423 47.6725 12.1436 47.681C14.6423 47.787 17.1681 47.6889 19.6682 47.6781L32.1711 47.6595L50.0655 47.7211C51.2245 47.7222 52.3784 47.7503 53.5371 47.7579C54.4055 47.7635 55.2682 47.6729 56.1296 47.6587C51.7673 55.9249 43.1737 61.0831 33.8271 61.0455C24.4805 61.0078 15.9287 55.7806 11.6331 47.4796Z" fill="var(--fill-0, #8C282E)"></path>
<path id="Vector_15" d="M28.6299 11.4043C32.7577 10.5131 37.0436 10.6775 41.091 11.8824C47.4962 13.7894 52.8766 18.1716 56.0403 24.0582C55.3761 24.0972 54.3909 24.0273 53.6982 24.014C52.4904 24.0004 51.2824 23.9991 50.0745 24.0101C44.276 24.0361 38.4775 24.0317 32.6791 23.9968L16.8173 24.0213C15.8534 24.0171 14.8894 24.0182 13.9254 24.0246C13.4113 24.0319 12.2759 24.1036 11.84 24.0135C15.3256 17.5593 21.4598 12.9525 28.6299 11.4043Z" fill="var(--fill-0, #853A3A)"></path>
<path id="Vector_16" d="M28.6299 11.4043C32.7577 10.5131 37.0436 10.6775 41.091 11.8824L41.0123 11.9647C41.237 12.1205 41.5167 12.1311 41.7374 12.2259C42.1196 12.3898 43.2917 12.8867 43.5619 13.1586C43.4706 13.3666 43.4276 13.5163 43.2432 13.6475C42.8642 13.7076 42.1194 13.137 41.7687 13.2606C41.9392 13.3537 42.2151 13.3458 42.4329 13.4206C43.8856 13.9193 45.1244 14.8364 46.4254 15.6258C46.7002 15.7924 47.0917 16.1109 47.3737 16.2213C47.4627 16.3587 47.4996 16.4162 47.5626 16.5668L47.4953 16.7146C47.1738 16.8158 46.3875 16.333 46.0093 16.1541C44.9601 15.286 42.3169 14.9578 41.0173 14.3659C40.8918 14.3087 40.7267 14.2384 40.5903 14.2519C40.7645 14.4824 42.999 15.048 43.5357 15.3001L43.4623 15.3694C40.8632 15.3813 38.7293 15.0096 36.1741 14.6716C35.3004 14.556 34.0834 14.6213 33.1786 14.6413C31.1454 14.6862 29.1767 14.4562 27.2311 13.8531C26.8526 13.7368 26.2691 13.8052 26.192 13.3125C25.8409 11.8418 28.3462 11.8777 28.6299 11.4043Z" fill="var(--fill-0, #987775)"></path>
<path id="Vector_17" d="M46.0093 16.1541C46.3875 16.333 47.1738 16.8158 47.4953 16.7146L47.5626 16.5668C47.4996 16.4162 47.4627 16.3587 47.3737 16.2213C47.7399 16.4882 48.3059 16.8417 48.5141 17.2244L48.4787 17.1841L48.4857 17.2056L48.3703 17.3767C47.8066 17.4069 46.3207 16.5939 46.0093 16.1541Z" fill="var(--fill-0, #936463)"></path>
<path id="Vector_18" d="M26.1036 31.0542C26.3698 31.1447 26.3825 31.1033 26.5394 31.2883C26.5291 31.497 26.4276 31.5869 26.2955 31.7548C26.3025 32.074 26.2662 32.1373 26.5422 32.3568C26.601 32.7142 26.6073 32.7988 26.8022 33.0979C26.9525 33.3875 26.8706 33.2922 27.1522 33.4752C27.4397 33.4931 27.8942 33.4424 28.0308 33.7159C28.5033 33.6479 28.4826 33.572 28.9881 33.6587C29.3943 33.5481 29.3416 33.4616 29.4295 33.0934C29.5044 33.5975 30.3063 34.4278 30.5283 35.2128C30.7095 35.6682 31.3219 36.4929 31.3625 36.6614C31.5275 36.7893 31.562 36.8274 31.7739 36.8335C31.535 37.0388 31.4208 37.3934 31.6527 37.6435C31.4992 37.7926 31.4001 37.8982 31.2181 38.0136C31.4329 38.5112 31.8738 39.3061 31.3072 39.7024L31.3477 39.9758C31.3874 40.6839 31.4131 41.018 31.6062 41.7107C31.1066 42.3967 29.7145 44.3866 28.9378 44.5666C28.6841 44.6414 23.9858 44.7543 23.5751 44.7415C23.2984 44.212 23.1046 43.582 22.9166 43.0115C22.5488 42.7245 22.2292 42.4702 21.8804 42.1608C21.573 40.9999 21.8424 37.8113 21.6548 37.412L21.3851 37.5543C21.2654 37.5349 21.1995 37.5103 21.0901 37.5487C20.8529 37.632 20.697 37.3613 20.5256 37.6314L20.0727 37.5167C20.1939 37.3715 20.2485 37.3177 20.3221 37.1372L20.2366 36.9698C20.9854 36.9996 21.2301 36.9446 21.9373 36.7704C22.0043 35.8741 21.8074 34.9794 22.0367 34.1731C22.1298 33.8457 22.4106 33.7463 22.7051 33.6101C23.0474 33.3848 23.6465 33.1255 23.7558 32.7852L23.629 32.5925C23.8787 32.5063 24.4642 31.7653 24.7034 31.5073C25.1517 31.3964 25.4443 31.3327 25.869 31.147L26.1036 31.0542Z" fill="var(--fill-0, #8A531B)"></path>
<path id="Vector_19" d="M29.4295 33.0934C29.5044 33.5975 30.3063 34.4278 30.5283 35.2128C30.7095 35.6682 31.3219 36.4929 31.3625 36.6614C31.5275 36.7893 31.562 36.8274 31.7739 36.8335C31.535 37.0388 31.4208 37.3934 31.6527 37.6435C31.4992 37.7925 31.4001 37.8982 31.2181 38.0135C31.4329 38.5112 31.8738 39.3061 31.3072 39.7024L31.3477 39.9758L31.2939 40.2302C30.8818 40.33 30.3661 39.7957 29.8702 39.6891C29.5972 39.4855 29.3486 39.2324 29.0365 39.2567C28.8608 39.4323 28.8449 39.7555 28.8076 40.0106L28.728 39.561C28.7978 39.3711 28.8702 39.1822 28.9453 38.9944C28.8761 38.7344 28.896 38.8101 28.6722 38.6066C28.6899 38.5351 28.8677 38.326 28.925 38.2525C28.4116 37.9064 28.1161 37.6789 27.4976 37.5479C27.1846 37.4671 26.8749 37.3759 26.5531 37.3485C26.4342 37.4033 26.5005 37.393 26.3449 37.3362C26.0602 36.859 25.9821 36.5366 25.9243 36.0067L25.8475 35.6489C25.8584 35.3259 25.7571 35.009 25.6762 34.6946L25.8157 34.3098C25.8694 34.0216 25.8982 33.9002 25.9965 33.6254C26.2255 33.6633 26.7833 33.4953 27.1522 33.4752C27.4397 33.4931 27.8942 33.4424 28.0308 33.7159C28.5033 33.6479 28.4826 33.572 28.9881 33.6587C29.3943 33.548 29.3416 33.4616 29.4295 33.0934Z" fill="var(--fill-0, #BCBEBF)"></path>
<path id="Vector_20" d="M27.1522 33.4752C27.4397 33.4931 27.8942 33.4424 28.0308 33.7159C27.3698 33.9488 27.0329 34.0139 26.6557 34.686C26.3771 35.1825 26.3793 36.8746 26.5531 37.3485C26.4342 37.4033 26.5005 37.393 26.3449 37.3362C26.0602 36.859 25.9821 36.5367 25.9243 36.0067L25.8475 35.6489C25.8584 35.3259 25.7571 35.009 25.6762 34.6946L25.8157 34.3098C25.8694 34.0216 25.8982 33.9002 25.9965 33.6254C26.2255 33.6633 26.7833 33.4953 27.1522 33.4752Z" fill="var(--fill-0, #1D0908)"></path>
<path id="Vector_21" d="M29.4295 33.0934C29.5044 33.5975 30.3063 34.4278 30.5283 35.2128C30.7095 35.6682 31.3219 36.4929 31.3625 36.6614C31.5275 36.7893 31.562 36.8274 31.7739 36.8335C31.535 37.0388 31.4208 37.3934 31.6527 37.6435C31.4992 37.7925 31.4001 37.8982 31.2181 38.0135C30.5311 36.4242 30.131 35.0058 28.9881 33.6587C29.3943 33.548 29.3416 33.4616 29.4295 33.0934Z" fill="var(--fill-0, #B77C1A)"></path>
<path id="Vector_22" d="M28.925 38.2525C29.6966 38.7931 30.5039 39.217 31.3072 39.7024L31.3477 39.9758L31.2939 40.2303C30.8818 40.3301 30.3661 39.7957 29.8702 39.6891C29.5972 39.4855 29.3486 39.2324 29.0365 39.2567C28.8608 39.4323 28.8449 39.7556 28.8076 40.0106L28.728 39.561C28.7978 39.3711 28.8702 39.1822 28.9453 38.9945C28.8761 38.7344 28.896 38.8101 28.6722 38.6066C28.6899 38.5351 28.8677 38.326 28.925 38.2525Z" fill="var(--fill-0, #6D3A0E)"></path>
<path id="Vector_23" d="M28.7062 36.6089C28.405 36.4541 27.9054 36.2561 27.7724 35.9364C27.4472 35.1549 28.422 34.6724 29.0027 34.4361L28.9103 35.7374C28.8943 36.0323 28.8862 36.2141 28.8274 36.5019L28.7062 36.6089Z" fill="var(--fill-0, #3A383C)"></path>
<path id="Vector_24" d="M28.9103 35.7374C28.9265 35.9726 28.9241 36.342 29.0372 36.5277C29.2528 36.6547 29.4942 36.7594 29.5891 36.981C29.5827 37.2073 29.6185 37.1266 29.4567 37.2824C29.0401 37.3052 28.9586 36.9197 28.7061 36.6089L28.8274 36.5019C28.8862 36.2141 28.8943 36.0323 28.9103 35.7374Z" fill="var(--fill-0, #828890)"></path>
<path id="Vector_25" d="M26.1036 31.0542C26.3698 31.1447 26.3825 31.1033 26.5394 31.2883C26.5291 31.497 26.4276 31.5869 26.2955 31.7548C26.3025 32.074 26.2662 32.1373 26.5422 32.3568C26.601 32.7142 26.6073 32.7988 26.8022 33.0979C26.9525 33.3875 26.8706 33.2922 27.1522 33.4752C26.7833 33.4953 26.2255 33.6633 25.9965 33.6254C25.8982 33.9002 25.8694 34.0216 25.8157 34.3098L25.6762 34.6946C25.7571 35.009 25.8584 35.3259 25.8475 35.6489C25.8164 35.9713 25.764 36.9968 25.6265 37.2209L25.7175 37.4267L25.6448 37.5445C24.7433 37.6096 24.4977 37.924 23.7404 38.5319C23.5965 38.6448 23.5882 38.6599 23.4145 38.6989C23.1536 38.5966 22.5196 37.5842 22.1342 37.1784C22.0159 37.2276 21.7287 37.3296 21.6548 37.412L21.3851 37.5543C21.2654 37.5349 21.1995 37.5103 21.0901 37.5487C20.8529 37.632 20.697 37.3613 20.5256 37.6314L20.0727 37.5167C20.1939 37.3715 20.2485 37.3177 20.3221 37.1372L20.2366 36.9698C20.9854 36.9996 21.2301 36.9446 21.9373 36.7704C22.0043 35.8741 21.8074 34.9794 22.0367 34.1731C22.1298 33.8457 22.4106 33.7463 22.7051 33.6101C23.0474 33.3848 23.6465 33.1255 23.7558 32.7852L23.629 32.5925C23.8787 32.5063 24.4642 31.7653 24.7034 31.5073C25.1517 31.3964 25.4443 31.3327 25.869 31.147L26.1036 31.0542Z" fill="var(--fill-0, #641F19)"></path>
<path id="Vector_26" d="M26.1036 31.0542C26.3698 31.1447 26.3826 31.1033 26.5394 31.2883C26.5291 31.497 26.4276 31.5869 26.2955 31.7548C26.3025 32.074 26.2662 32.1373 26.5422 32.3568C26.601 32.7142 26.6073 32.7988 26.8022 33.0979C26.9525 33.3875 26.8706 33.2922 27.1522 33.4752C26.7833 33.4953 26.2255 33.6633 25.9965 33.6254C25.8154 33.5614 25.3515 33.5174 25.1403 33.4908C24.3949 33.5104 23.3774 33.6605 22.7051 33.6101C23.0474 33.3848 23.6465 33.1255 23.7558 32.7852L23.629 32.5925C23.8787 32.5063 24.4643 31.7653 24.7034 31.5073C25.1517 31.3964 25.4443 31.3327 25.869 31.147L26.1036 31.0542Z" fill="var(--fill-0, #C96B10)"></path>
<path id="Vector_27" d="M26.2955 31.7548C26.3025 32.074 26.2662 32.1373 26.5422 32.3568C26.601 32.7142 26.6073 32.7988 26.8022 33.0979C26.9525 33.3875 26.8706 33.2922 27.1522 33.4752C26.7833 33.4953 26.2255 33.6633 25.9965 33.6254C25.8154 33.5614 25.3515 33.5174 25.1403 33.4908C25.9881 33.3854 25.8506 32.5228 26.2955 31.7548Z" fill="var(--fill-0, #90371C)"></path>
<path id="Vector_28" d="M22.6712 36.4121C22.681 35.8516 22.6853 34.9214 23.1238 34.5307C23.3901 34.2934 25.3528 34.1508 25.7219 34.1643L25.8157 34.3098L25.6762 34.6946C24.8206 36.067 24.2015 36.2489 22.6712 36.4121Z" fill="var(--fill-0, #90371C)"></path>
<path id="Vector_29" d="M22.1342 37.1784C23.201 37.0011 24.6349 36.7175 25.6265 37.2209L25.7175 37.4267L25.6448 37.5445C24.7433 37.6096 24.4977 37.924 23.7404 38.5319C23.5965 38.6448 23.5882 38.6599 23.4145 38.6989C23.1536 38.5966 22.5196 37.5842 22.1342 37.1784Z" fill="var(--fill-0, #BA4F18)"></path>
<path id="Vector_30" d="M28.6722 38.6066C28.896 38.8101 28.8761 38.7344 28.9453 38.9944C28.8702 39.1822 28.7978 39.3711 28.728 39.561L28.8076 40.0106C28.8449 39.7556 28.8608 39.4323 29.0365 39.2567C29.3486 39.2324 29.5972 39.4855 29.8702 39.6891C30.3661 39.7957 30.8818 40.3301 31.2939 40.2302L31.3477 39.9758C31.3874 40.6839 31.4131 41.018 31.6062 41.7107C31.1066 42.3967 29.7145 44.3866 28.9378 44.5666C28.518 44.5372 27.6328 44.6727 27.372 44.4598L27.426 44.2107C27.5687 43.7061 27.5451 42.989 27.5609 42.4445C27.5127 42.3468 27.3272 42.1522 27.2464 42.0612C27.1072 41.55 26.5819 41.0123 26.672 40.625C27.407 40.0281 28.0559 39.322 28.6722 38.6066Z" fill="var(--fill-0, #BA4F18)"></path>
<path id="Vector_31" d="M29.8702 39.6891C30.3661 39.7957 30.8818 40.33 31.2939 40.2302L31.3477 39.9758C31.3874 40.6839 31.4131 41.018 31.6062 41.7107C31.1066 42.3967 29.7145 44.3866 28.9378 44.5666C28.8189 44.5415 28.7494 44.5141 28.6351 44.4722C28.6231 44.3558 28.6014 44.314 28.5407 44.2135C28.6373 44.0747 28.7811 43.9329 28.8898 43.7924C29.7366 42.6967 29.8955 41.0354 29.8702 39.6891Z" fill="var(--fill-0, #90371C)"></path>
<path id="Vector_32" d="M28.6722 38.6066C28.896 38.8101 28.8761 38.7344 28.9453 38.9944C28.8702 39.1822 28.7978 39.3711 28.728 39.561C28.4438 40.1612 27.6341 41.8377 27.6014 42.451L27.5609 42.4445C27.5127 42.3468 27.3272 42.1522 27.2464 42.0612C27.1072 41.55 26.5819 41.0123 26.672 40.625C27.407 40.0281 28.0559 39.322 28.6722 38.6066Z" fill="var(--fill-0, #666367)"></path>
<path id="Vector_33" d="M27.6014 42.451C27.6341 41.8376 28.4438 40.1612 28.728 39.561L28.8076 40.0106C28.4812 40.8738 28.297 42.4288 28.24 43.3211C28.2301 43.5674 28.1868 43.9169 28.292 44.1244C28.4039 44.1965 28.4036 44.2077 28.5407 44.2135C28.6014 44.314 28.6231 44.3558 28.6351 44.4722C28.7494 44.514 28.8189 44.5415 28.9378 44.5665C28.518 44.5372 27.6328 44.6727 27.372 44.4598L27.426 44.2107C27.5687 43.706 27.5451 42.989 27.5609 42.4445L27.6014 42.451Z" fill="var(--fill-0, #46293A)"></path>
<path id="Vector_34" d="M27.5609 42.4445L27.6014 42.451C27.6694 42.9077 27.6573 43.902 27.8749 44.0806C28.2945 43.7336 28.0868 43.6911 28.24 43.3211C28.2301 43.5674 28.1868 43.9169 28.292 44.1244C28.4039 44.1965 28.4036 44.2077 28.5407 44.2135C28.6014 44.314 28.6231 44.3558 28.6351 44.4722C28.7494 44.514 28.8189 44.5415 28.9378 44.5665C28.518 44.5372 27.6328 44.6727 27.372 44.4598L27.426 44.2107C27.5687 43.706 27.5451 42.989 27.5609 42.4445Z" fill="var(--fill-0, #562520)"></path>
<path id="Vector_35" d="M25.8475 35.6489L25.9243 36.0067C25.9821 36.5366 26.0602 36.859 26.3449 37.3362C26.5005 37.393 26.4342 37.4033 26.5531 37.3485C26.8749 37.3759 27.1846 37.4671 27.4976 37.5479C28.1161 37.6789 28.4116 37.9064 28.925 38.2525C28.8677 38.326 28.6899 38.5351 28.6722 38.6066C28.0559 39.322 27.407 40.0281 26.672 40.6249C26.2686 40.1986 25.2908 39.5219 24.785 39.1495C24.6228 39.2064 24.2153 39.3251 24.0566 39.2634C24.2369 39.212 24.8273 39.1074 24.959 39.164C25.4611 39.3799 26.3014 40.3698 26.8489 40.3244L26.9886 40.1142C26.8965 40.0824 26.8116 39.967 26.742 39.8889C26.6658 39.6482 26.8477 39.2433 26.9192 38.9359C26.8156 38.3571 26.5271 38.486 26.3307 38.205C25.3117 36.7464 24.4581 38.5591 23.7404 38.5319C24.4977 37.924 24.7433 37.6096 25.6448 37.5445L25.7175 37.4267L25.6265 37.2209C25.764 36.9968 25.8164 35.9712 25.8475 35.6489Z" fill="var(--fill-0, #562520)"></path>
<path id="Vector_36" d="M25.9243 36.0067C25.9821 36.5367 26.0602 36.859 26.3449 37.3362C26.5005 37.393 26.4342 37.4033 26.5531 37.3485C26.8749 37.3759 27.1846 37.4671 27.4976 37.5479C25.8435 38.2209 25.9042 37.2567 25.9243 36.0067Z" fill="var(--fill-0, #3E1206)"></path>
<path id="Vector_37" d="M27.2464 42.0612C27.3272 42.1522 27.5127 42.3468 27.5609 42.4445C27.5451 42.989 27.5687 43.706 27.426 44.2107C26.1155 43.5157 26.6833 42.9963 27.2223 42.1016L27.2464 42.0612Z" fill="var(--fill-0, #B77C1A)"></path>
<path id="Vector_38" d="M33.1365 33.118C33.5819 32.6037 33.8801 32.4617 34.4723 32.1731C34.1877 32.982 33.9772 33.0544 33.7178 33.6303C34.0326 34.2418 34.5402 35.569 34.6 36.2398C34.6843 36.5022 34.7482 36.6611 34.76 36.9359C34.8505 37.2492 35.0483 37.7387 34.8573 38.0246C34.5479 38.0073 33.9612 37.3733 33.4891 37.169L32.9905 37.2913C32.7929 37.3736 32.5444 37.4883 32.3407 37.5298C32.0977 37.5611 31.8933 37.5966 31.6527 37.6435C31.4208 37.3934 31.535 37.0388 31.7739 36.8335C31.562 36.8274 31.5275 36.7893 31.3625 36.6614C31.3219 36.4929 30.7095 35.6682 30.5283 35.2128C30.8879 35.235 31.2229 35.5196 31.531 35.4174C31.774 35.1248 32.063 34.5474 32.17 34.1764C32.2005 34.0707 32.2272 34.085 32.3483 34.0015C32.2795 33.7105 32.0002 33.5501 31.9421 33.0924C31.8964 32.8135 31.8519 32.8349 31.9622 32.6374C32.3812 32.5738 32.7251 32.9127 33.1365 33.118Z" fill="var(--fill-0, #BCBEBF)"></path>
<path id="Vector_39" d="M33.1365 33.118C33.5819 32.6037 33.8801 32.4617 34.4723 32.1731C34.1877 32.982 33.9772 33.0544 33.7179 33.6303L33.6417 33.4662L33.5407 33.4821C33.4667 33.6247 33.4294 33.6794 33.3955 33.8347C33.0714 33.8226 32.9829 33.8155 32.6713 33.8916C32.371 33.7062 32.1582 33.3777 31.9421 33.0924C31.8964 32.8135 31.8519 32.8349 31.9622 32.6374C32.3812 32.5738 32.7251 32.9127 33.1365 33.118Z" fill="var(--fill-0, #6D3A0E)"></path>
<path id="Vector_40" d="M31.9421 33.0924C32.1582 33.3777 32.371 33.7062 32.6713 33.8916C32.8787 34.4924 31.8585 35.2442 31.857 35.8989C31.6223 36.0384 31.5265 36.3977 31.3625 36.6614C31.3219 36.4929 30.7095 35.6682 30.5283 35.2128C30.8879 35.235 31.2229 35.5196 31.531 35.4174C31.774 35.1248 32.063 34.5474 32.17 34.1764C32.2005 34.0707 32.2272 34.085 32.3483 34.0015C32.2795 33.7105 32.0002 33.5501 31.9421 33.0924Z" fill="var(--fill-0, #F3BB1E)"></path>
<path id="Vector_41" d="M32.2081 36.4675C32.5807 36.4963 32.9526 36.5561 33.3076 36.6775C33.2637 36.8393 33.3903 37.0264 33.4891 37.169L32.9905 37.2913C32.793 37.3736 32.5444 37.4883 32.3407 37.5298C32.0977 37.5611 31.8933 37.5966 31.6527 37.6435C31.4208 37.3934 31.535 37.0388 31.7739 36.8335C31.8596 36.7341 32.0956 36.5572 32.2081 36.4675Z" fill="var(--fill-0, #8A531B)"></path>
<path id="Vector_42" d="M32.2081 36.4675C32.5807 36.4963 32.9526 36.5561 33.3076 36.6775C33.2637 36.8393 33.3903 37.0264 33.489 37.169L32.9905 37.2913C32.6189 36.926 32.3782 36.9055 32.2081 36.4675Z" fill="var(--fill-0, #6D3A0E)"></path>
<path id="Vector_43" d="M33.3076 36.6775C33.7113 36.7531 34.3706 36.897 34.76 36.9359C34.8505 37.2492 35.0483 37.7387 34.8573 38.0246C34.5479 38.0073 33.9612 37.3733 33.4891 37.169C33.3903 37.0264 33.2637 36.8393 33.3076 36.6775Z" fill="var(--fill-0, #3E1206)"></path>
<path id="Vector_44" d="M33.3955 33.8347C33.4294 33.6794 33.4667 33.6247 33.5407 33.4821L33.6417 33.4662L33.7179 33.6303C34.0326 34.2418 34.5402 35.569 34.6 36.2398C34.1251 35.3981 33.7838 34.7655 33.4329 33.868L33.3955 33.8347Z" fill="var(--fill-0, #562520)"></path>
<path id="Vector_45" d="M32.6713 33.8916C32.9828 33.8155 33.0714 33.8226 33.3955 33.8347L33.4329 33.868C32.7992 34.0728 32.7598 35.1853 31.857 35.8989C31.8585 35.2442 32.8787 34.4924 32.6713 33.8916Z" fill="var(--fill-0, #8A531B)"></path>
<path id="Vector_46" d="M28.0269 29.6146L28.2416 29.59C28.5895 29.9158 28.8989 29.9603 29.2459 30.1753C29.6661 30.1046 30.0508 29.8759 30.4334 29.6804C31.0493 29.9783 31.5519 30.3111 31.0833 31.0698C30.6338 31.7975 29.8806 32.3462 29.4295 33.0934C29.3415 33.4616 29.3943 33.548 28.9881 33.6587C28.4826 33.572 28.5033 33.6479 28.0308 33.7159C27.8942 33.4424 27.4397 33.4931 27.1522 33.4752C26.8706 33.2922 26.9525 33.3875 26.8022 33.0979C26.6073 32.7988 26.601 32.7142 26.5422 32.3568C26.8259 31.6859 27.4578 31.3307 28.1083 31.0862L28.0513 30.9081C27.7671 30.8353 27.7331 30.8169 27.4961 30.6435C27.711 30.4869 27.781 30.4983 27.8275 30.2911L27.6698 30.1703C27.8309 30.0464 27.9844 29.9487 28.0779 29.7674L28.0269 29.6146Z" fill="var(--fill-0, #6D3A0E)"></path>
<path id="Vector_47" d="M28.1083 31.0862C28.8267 30.8869 29.205 31.3205 30.0117 31.0693C30.2293 32.0702 27.2175 32.7159 26.8022 33.0979C26.6073 32.7988 26.601 32.7142 26.5422 32.3568C26.8259 31.6859 27.4578 31.3308 28.1083 31.0862Z" fill="var(--fill-0, #C96B10)"></path>
<path id="Vector_48" d="M28.0269 29.6146L28.2416 29.59C28.5895 29.9158 28.8989 29.9603 29.2459 30.1753C29.4868 30.2717 29.4913 30.2533 29.5878 30.4765C29.3297 30.7484 29.183 30.6611 29.084 30.9264C29.475 31.3211 29.6681 30.755 29.9839 30.9496L30.0117 31.0693C29.205 31.3205 28.8267 30.8869 28.1084 31.0862L28.0513 30.9081C27.7671 30.8353 27.7331 30.8169 27.4961 30.6435C27.711 30.4869 27.781 30.4983 27.8275 30.2911L27.6698 30.1703C27.8309 30.0464 27.9844 29.9487 28.0779 29.7674L28.0269 29.6146Z" fill="var(--fill-0, #3B2911)"></path>
<path id="Vector_49" d="M33.1635 38.7131C34.7549 39.6503 35.5183 39.7013 34.5012 41.6148C34.3486 42.1151 34.41 42.4839 34.455 43.005C34.5038 43.4687 34.6233 44.3579 34.584 44.7858L34.493 44.896C34.0662 44.7216 34.1251 43.8793 33.2402 44.1876C32.8874 44.3104 32.3827 44.7577 32.0536 44.7494C31.6807 44.4427 32.0516 43.5578 32.1074 43.1218C32.1209 42.9066 32.1755 42.6108 32.2096 42.3905C32.2662 41.9383 32.1807 41.6325 32.2575 41.1852C32.429 40.1863 32.9253 40.1762 33.6804 39.6649L33.7051 39.4924C33.469 39.269 33.1813 39.041 33.1635 38.7131Z" fill="var(--fill-0, #D2F8FB)"></path>
<path id="Vector_50" d="M33.1635 38.7131C34.7549 39.6503 35.5183 39.7013 34.5012 41.6148C34.4771 41.3554 34.4494 41.3648 34.287 41.2263C34.2644 41.4249 34.2673 41.5838 34.1314 41.732C33.5775 41.9197 33.2999 41.3909 32.4697 41.2376C32.4743 41.35 32.4703 41.5629 32.5145 41.6549C32.43 41.8551 32.2729 42.1959 32.2096 42.3905C32.2662 41.9383 32.1806 41.6325 32.2575 41.1852C32.429 40.1863 32.9253 40.1762 33.6804 39.6649L33.7051 39.4924C33.469 39.269 33.1813 39.041 33.1635 38.7131Z" fill="var(--fill-0, #8A531B)"></path>
<path id="Vector_51" d="M32.4697 41.2376C32.446 41.1206 32.3891 41.0056 32.4877 40.9125C32.859 40.5619 33.4618 39.8707 34.0082 40.2941C34.3131 40.5305 34.2342 40.8859 34.287 41.2263C34.2645 41.4249 34.2673 41.5838 34.1314 41.732C33.5775 41.9197 33.2999 41.3909 32.4697 41.2376Z" fill="var(--fill-0, #E3E7CD)"></path>
<path id="Vector_52" d="M34.455 43.005C34.5038 43.4687 34.6233 44.3579 34.584 44.7858L34.493 44.896C34.0662 44.7217 34.1251 43.8793 33.2402 44.1876C32.8874 44.3104 32.3827 44.7578 32.0536 44.7494C31.6807 44.4428 32.0516 43.5578 32.1074 43.1218C32.5345 43.5386 33.6136 43.8843 34.1672 43.597C34.2963 43.3778 34.2513 43.3947 34.2439 43.0983L34.455 43.005Z" fill="var(--fill-0, #010300)"></path>
<path id="Vector_53" d="M34.287 41.2263C34.4494 41.3648 34.4771 41.3554 34.5012 41.6148C34.3486 42.1151 34.41 42.4839 34.455 43.005L34.2439 43.0983C34.2191 42.9335 34.184 42.6429 34.0809 42.5234C33.6911 42.0716 33.1205 41.6138 32.5145 41.6549C32.4703 41.5629 32.4743 41.35 32.4697 41.2377C33.2999 41.3909 33.5775 41.9197 34.1314 41.732C34.2673 41.5838 34.2645 41.425 34.287 41.2263Z" fill="var(--fill-0, #3B2911)"></path>
<path id="Vector_54" d="M19.7857 38.7251C19.9271 38.8517 20.0415 38.9498 20.1662 39.0956L19.8745 39.3851L20.0032 39.5659C20.0828 39.6727 20.2052 41.8686 20.1912 42.1945C20.4225 42.5167 20.6605 42.7941 20.9153 43.0967C21.1158 43.2648 21.237 43.4534 21.3361 43.6887C21.9955 45.2553 20.2859 44.6499 19.6516 44.4219L19.3711 44.3714C19.03 44.5792 18.7122 44.8104 18.3121 44.8082C18.0811 44.7017 18.153 44.7733 18.0455 44.5367C18.0422 44.2269 18.3107 43.6124 18.5201 43.395L18.6897 43.269C18.8191 42.9724 18.7447 42.5973 18.7236 42.2546C18.6219 41.6337 18.1859 40.9773 17.867 40.424C18.258 39.9068 19.2363 39.2097 19.7857 38.7251Z" fill="var(--fill-0, #DFDAD4)"></path>
<path id="Vector_55" d="M19.7857 38.7251C19.9271 38.8517 20.0415 38.9498 20.1662 39.0956L19.8745 39.3851L18.3932 40.6754C18.6167 41.2275 18.7791 41.5751 19.0583 42.1012C18.9136 42.2027 18.8925 42.2319 18.7236 42.2546C18.6219 41.6337 18.1859 40.9773 17.867 40.424C18.258 39.9068 19.2363 39.2097 19.7857 38.7251Z" fill="var(--fill-0, #010300)"></path>
<path id="Vector_56" d="M20.9153 43.0967C21.1158 43.2648 21.237 43.4534 21.3361 43.6887C21.9954 45.2553 20.2859 44.6499 19.6516 44.4219C20.1847 44.0964 20.2885 44.0031 20.7223 43.5742C20.7865 43.4574 20.8651 43.2292 20.9153 43.0967Z" fill="var(--fill-0, #46293A)"></path>
<path id="Vector_57" d="M18.5201 43.395C18.9912 43.5057 19.0316 43.5498 19.2905 43.9691L19.3309 44.0354L19.3711 44.3714C19.03 44.5792 18.7122 44.8104 18.3121 44.8082C18.0811 44.7017 18.153 44.7733 18.0455 44.5367C18.0422 44.227 18.3107 43.6124 18.5201 43.395Z" fill="var(--fill-0, #46293A)"></path>
<path id="Vector_58" d="M19.0583 42.1012C19.1745 42.3108 19.4334 42.8678 19.5219 43.0015C19.4843 43.1983 19.3357 43.8777 19.3309 44.0354L19.2905 43.9691C19.0316 43.5498 18.9912 43.5057 18.5201 43.395L18.6897 43.269C18.8191 42.9724 18.7447 42.5972 18.7236 42.2546C18.8925 42.2319 18.9136 42.2027 19.0583 42.1012Z" fill="var(--fill-0, #3A383C)"></path>
<path id="Vector_59" d="M19.5219 43.0015C19.8769 43.3431 20.1844 43.6168 20.7223 43.5742C20.2885 44.0031 20.1847 44.0964 19.6516 44.4219L19.3711 44.3714L19.3309 44.0354C19.3357 43.8777 19.4843 43.1983 19.5219 43.0015Z" fill="var(--fill-0, #BCBEBF)"></path>
<path id="Vector_60" d="M20.0032 39.5659C20.0828 39.6727 20.2052 41.8686 20.1912 42.1945C19.6651 41.5892 19.6048 40.2365 20.0032 39.5659Z" fill="var(--fill-0, #4E3F00)"></path>
<path id="Vector_61" d="M26.5316 28.1524C26.558 28.437 26.5878 28.3442 26.4556 28.5768C26.2581 28.6796 26.0135 28.7747 25.9059 28.9536L25.9134 29.1261C26.1469 29.2714 27.463 29.3727 27.7422 29.2823C27.828 29.0853 27.784 28.9801 27.8305 28.7688C27.9563 28.9458 28.0713 29.1415 28.2463 29.261C28.3318 29.4401 28.3235 29.3565 28.2416 29.59L28.0269 29.6146L28.0779 29.7674C27.9844 29.9487 27.8309 30.0464 27.6698 30.1703C27.1679 30.0955 26.9927 30.0354 26.5106 30.2097L26.3993 30.2345C26.3259 30.3338 26.2317 30.4745 26.1451 30.5551C26.3563 30.5788 26.505 30.5765 26.6727 30.7109C26.6247 31.0278 26.3266 30.9382 26.1036 31.0542L25.869 31.147C25.4443 31.3327 25.1517 31.3964 24.7034 31.5073C24.4642 31.7653 23.8787 32.5063 23.629 32.5925C23.189 32.1022 23.015 31.9521 22.6289 31.3937C22.4266 31.2374 22.1322 30.6588 22.0021 30.4188C22.2755 30.1368 22.3982 30.0001 22.7482 29.8123C23.1447 29.6058 23.5489 29.5663 23.9424 29.3798C24.1006 29.3382 24.2997 29.3417 24.4668 29.336C25.1925 29.3321 25.4471 29.4679 25.6433 28.7042C26.1103 28.6037 26.3167 28.5988 26.5316 28.1524Z" fill="var(--fill-0, #B77C1A)"></path>
<path id="Vector_62" d="M26.5316 28.1524C26.558 28.437 26.5878 28.3442 26.4556 28.5768C26.2581 28.6796 26.0135 28.7747 25.9059 28.9536L25.9134 29.1261C26.1469 29.2714 27.463 29.3727 27.7422 29.2823C27.828 29.0853 27.784 28.9801 27.8305 28.7688C27.9563 28.9458 28.0713 29.1415 28.2463 29.261C28.3318 29.4401 28.3235 29.3565 28.2416 29.59L28.0269 29.6146L28.0779 29.7674C27.9844 29.9487 27.8309 30.0464 27.6698 30.1703C27.1679 30.0955 26.9927 30.0354 26.5106 30.2097L26.3993 30.2345C25.6977 30.0068 25.8615 29.8817 25.0436 30.0459C24.8324 29.9027 24.8886 29.977 24.7919 29.7698C24.9981 29.3949 25.4475 29.6207 25.6824 29.4145C25.2416 29.4066 24.9034 29.4081 24.4668 29.336C25.1925 29.3321 25.4471 29.4679 25.6433 28.7042C26.1103 28.6037 26.3167 28.5988 26.5316 28.1524Z" fill="var(--fill-0, #010300)"></path>
<path id="Vector_63" d="M26.5316 28.1524C26.558 28.437 26.5878 28.3442 26.4556 28.5768C26.2581 28.6796 26.0135 28.7747 25.9059 28.9536L25.9134 29.1261C26.1469 29.2714 27.463 29.3727 27.7422 29.2823C27.828 29.0853 27.784 28.9801 27.8305 28.7688C27.9563 28.9458 28.0713 29.1415 28.2463 29.261C28.3318 29.4401 28.3235 29.3565 28.2416 29.59L28.0269 29.6146C27.0013 29.4276 26.7042 29.3564 25.6824 29.4145C25.2416 29.4066 24.9034 29.4081 24.4668 29.336C25.1925 29.3321 25.4471 29.4679 25.6433 28.7042C26.1103 28.6037 26.3167 28.5988 26.5316 28.1524Z" fill="var(--fill-0, #F3BB1E)"></path>
<path id="Vector_64" d="M22.6289 31.3937C22.9759 30.9609 22.9485 31.3484 23.3315 30.9053C23.7037 31.2435 23.6359 31.2143 24.2107 31.1957C24.4607 31.1875 24.7836 31.184 25.007 31.0714L25.135 31.2275C25.4321 31.2352 25.5745 31.2024 25.869 31.147C25.4443 31.3327 25.1517 31.3964 24.7034 31.5072C24.4643 31.7653 23.8787 32.5063 23.629 32.5925C23.189 32.1022 23.015 31.9521 22.6289 31.3937Z" fill="var(--fill-0, #1D0908)"></path>
<path id="Vector_65" d="M22.0021 30.4188C22.2755 30.1368 22.3982 30.0001 22.7482 29.8123C22.7781 29.9422 22.81 30.0718 22.8438 30.2008C23.0148 30.4737 23.1336 30.6524 23.3315 30.9053C22.9485 31.3484 22.9759 30.9609 22.6289 31.3937C22.4266 31.2374 22.1322 30.6588 22.0021 30.4188Z" fill="var(--fill-0, #3E1206)"></path>
<path id="Vector_66" d="M23.9424 29.3798C24.1006 29.3382 24.2997 29.3417 24.4668 29.336C24.9034 29.4081 25.2416 29.4066 25.6824 29.4145C25.4475 29.6207 24.9981 29.3949 24.7919 29.7698C24.8886 29.977 24.8324 29.9027 25.0436 30.0459C24.7961 30.1238 24.45 30.271 24.2151 30.2044C24.0125 30.0244 24.0645 30.0352 23.9717 29.7373L23.9424 29.3798Z" fill="var(--fill-0, #1D0908)"></path>
<path id="Vector_67" d="M25.007 31.0714C25.408 30.6513 25.5917 30.5827 26.1451 30.5551C26.3563 30.5788 26.5051 30.5765 26.6727 30.7109C26.6247 31.0278 26.3266 30.9382 26.1036 31.0542L25.869 31.147C25.5745 31.2024 25.4321 31.2352 25.135 31.2275L25.007 31.0714Z" fill="var(--fill-0, #010300)"></path>
<path id="Vector_68" d="M22.7481 29.8123C23.1447 29.6058 23.5489 29.5663 23.9424 29.3798L23.9716 29.7373C23.6046 29.745 23.2604 29.832 22.9444 30.0216L22.8438 30.2008C22.8099 30.0718 22.7781 29.9422 22.7481 29.8123Z" fill="var(--fill-0, #6D3A0E)"></path>
<path id="Vector_69" d="M18.5063 32.3415C19.3492 32.2986 19.8086 32.2305 20.6436 32.4335C20.717 33.9758 20.2503 34.0623 20.1528 35.6364L20.1502 35.6863C20.1687 35.9002 20.2612 36.8171 20.2366 36.9698L20.3222 37.1372C20.2485 37.3177 20.1939 37.3715 20.0727 37.5167C18.9483 37.6192 19.1806 37.8167 18.2968 38.2091L18.1971 38.1168C17.9925 37.5201 18.6359 34.6312 18.8178 33.9083C18.8308 33.507 18.5909 32.7722 18.5063 32.3415Z" fill="var(--fill-0, #DFDAD4)"></path>
<path id="Vector_70" d="M18.5063 32.3415C19.3492 32.2986 19.8086 32.2305 20.6436 32.4335C20.717 33.9758 20.2503 34.0623 20.1528 35.6364L20.1502 35.6863L19.93 34.3546C19.6746 34.1688 19.4655 33.9514 19.1478 34.0184L19.0525 34.1889L18.9636 33.9594L18.8178 33.9083C18.8307 33.507 18.5909 32.7722 18.5063 32.3415Z" fill="var(--fill-0, #8A531B)"></path>
<path id="Vector_71" d="M18.8178 33.9083L18.9636 33.9594L19.0525 34.1888C18.6351 35.1567 18.5831 35.9343 18.5438 36.9763C19.0485 36.9698 19.7476 36.9411 20.2366 36.9698L20.3222 37.1372C20.2485 37.3177 20.1939 37.3715 20.0727 37.5167C18.9483 37.6192 19.1806 37.8167 18.2968 38.2091L18.1971 38.1168C17.9925 37.5201 18.6359 34.6312 18.8178 33.9083Z" fill="var(--fill-0, #3E1206)"></path>
<path id="Vector_72" d="M31.6527 37.6435C31.8933 37.5966 32.0977 37.5611 32.3407 37.5298C32.1572 38.2102 32.8948 38.2755 33.1635 38.7131C33.1813 39.041 33.469 39.269 33.7051 39.4924C33.4277 39.4486 33.3558 39.4991 33.0779 39.541C32.9887 39.621 32.8941 39.6835 32.7911 39.7447C32.5892 39.7014 32.4763 39.6696 32.2799 39.6048C32.1391 39.4346 31.9808 39.2333 31.8283 39.0791C31.7732 39.1799 31.6074 40.5716 31.5909 40.7682C31.5896 40.6874 31.5906 40.2238 31.5688 40.1881C31.4909 40.7788 31.3962 40.8651 31.826 41.3255L31.8518 41.491L31.6062 41.7107C31.4131 41.018 31.3874 40.6839 31.3477 39.9758L31.3072 39.7024C31.8738 39.3061 31.4329 38.5112 31.2181 38.0136C31.4001 37.8982 31.4992 37.7926 31.6527 37.6435Z" fill="var(--fill-0, #B77C1A)"></path>
<path id="Vector_73" d="M26.3993 30.2345L26.5106 30.2097C26.6033 30.4525 26.6292 30.5687 26.8275 30.737C27.0589 30.8276 27.1685 30.7861 27.4019 30.6861C27.4336 30.6724 27.465 30.6582 27.4961 30.6435C27.7331 30.817 27.7671 30.8353 28.0513 30.9081L28.1083 31.0862C27.4578 31.3307 26.8259 31.6859 26.5422 32.3568C26.2662 32.1373 26.3025 32.074 26.2955 31.7548C26.4276 31.5869 26.5291 31.497 26.5394 31.2883C26.3825 31.1033 26.3698 31.1447 26.1036 31.0542C26.3266 30.9382 26.6247 31.0278 26.6727 30.7109C26.505 30.5765 26.3563 30.5788 26.1451 30.5551C26.2317 30.4745 26.3259 30.3338 26.3993 30.2345Z" fill="var(--fill-0, #1D0908)"></path>
<path id="Vector_74" d="M27.8305 28.7688C27.5073 28.3407 27.2353 27.8335 27.786 27.4211L27.9258 27.402C28.2622 27.6802 28.211 28.8075 28.2463 29.261C28.0713 29.1415 27.9563 28.9458 27.8305 28.7688Z" fill="var(--fill-0, #010300)" fill-opacity="0.988235"></path>
<path id="Vector_75" d="M20.5256 37.6314C20.697 37.3613 20.8529 37.632 21.0901 37.5487C21.1995 37.5103 21.2654 37.5349 21.3851 37.5542C20.6793 38.0908 20.6373 38.5559 20.1662 39.0956C20.0415 38.9498 19.9271 38.8517 19.7857 38.7251C20.142 38.3495 20.3642 38.1261 20.5256 37.6314Z" fill="var(--fill-0, #3B2911)"></path>
<path id="Vector_76" d="M25.6433 28.7042C25.5343 28.334 25.561 27.6538 26.0643 27.6108C26.2981 27.7047 26.397 27.9312 26.5316 28.1524C26.3167 28.5988 26.1103 28.6037 25.6433 28.7042Z" fill="var(--fill-0, #010300)" fill-opacity="0.988235"></path>
<path id="Vector_77" d="M26.5106 30.2097C26.9927 30.0354 27.1679 30.0955 27.6698 30.1703L27.8275 30.2911C27.781 30.4983 27.711 30.4869 27.4961 30.6435C27.465 30.6582 27.4336 30.6724 27.4019 30.6861C27.1685 30.786 27.0589 30.8275 26.8275 30.737C26.6292 30.5687 26.6033 30.4525 26.5106 30.2097Z" fill="var(--fill-0, #B77C1A)" fill-opacity="0.984314"></path>
</g>
<defs>
<clipPath id="clip0_0_4">
<rect width="70" height="70" fill="white"></rect>
</clipPath>
</defs>
</svg>